<svg id="Layer_1" data-name="Layer 1" xmlns="http://www.w3.org/2000/svg" viewBox="0 0 104 99"><title>GrowRevenue</title><path d="M52.41,81V76.46a17.41,17.41,0,0,0,6.47,1.16,28,28,0,0,0,12.89-3.43c7.9-4.21,13.11-11.33,13-17.71l0-1.13-.93-.65c-5.21-3.68-14-3.32-21.93.9a28.24,28.24,0,0,0-9.44,8V52.9c5.06-3.31,8.37-10.79,8.35-19.14,0-8.95-3.87-16.89-9.58-19.75l-1-.51-1,.51c-5.69,2.89-9.5,10.85-9.47,19.8,0,8.23,3.28,15.6,8.23,19V56.9a28.94,28.94,0,0,0-7-7.58c-7.13-5.4-15.78-7.16-21.51-4.36l-1,.5-.2,1.11C17,52.85,21,60.7,28.16,66.11c4.87,3.7,10.44,5.68,15.31,5.68a15.24,15.24,0,0,0,4.45-.64V81H19.66V85.5H86V81ZM64,59.55c5.82-3.1,12.26-3.77,16.23-1.79-.57,4.39-4.72,9.37-10.53,12.47S57.4,74,53.43,72C54,67.63,58.14,62.65,64,59.55Zm-33.09,3c-5.25-4-8.56-9.55-8.43-14,4.24-1.33,10.49.35,15.74,4.34s8.56,9.55,8.43,14C42.38,68.21,36.12,66.52,30.87,62.54ZM44.17,33.8c0-6.59,2.41-12.6,6-15.18,3.62,2.57,6.08,8.56,6.09,15.15s-2.41,12.6-6,15.18C46.64,46.39,44.19,40.39,44.17,33.8Z"/></svg>