<svg xmlns="http://www.w3.org/2000/svg" width="400" height="151" viewBox="0 0 400 151">
  <path fill="#2D2D2D" fill-rule="evenodd" d="M50.3496503,47.8041958 L50.3496503,61.5384615 C69.1748252,50.3496503 75.5244755,48.3356643 85.2307692,48.3356643 C107.440559,48.3356643 123.832168,68.8111888 123.832168,97.1748252 C123.832168,129.958042 101.958042,152 67.4965035,152 C61.7680704,151.987079 56.044375,151.669615 50.3496503,151.048951 L50.3496503,184.195804 L67.1328671,187.916084 L67.1328671,197.370629 L1.65034965,197.370629 L1.65034965,187.804196 L16.5874126,184.083916 L16.5874126,69.7622378 L-6.8172352e-14,69.7622378 L-6.8172352e-14,59.972028 L40.027972,47.8041958 L50.3496503,47.8041958 Z M359.692308,47.5524476 C382.965035,47.5524476 398.853147,58.1818182 398.853147,73.7902098 C398.853147,83.8601399 391.384615,90.7692308 380.335664,90.7692308 C374.539654,90.7025692 368.882733,88.9851163 364.027972,85.8181818 L364.167832,58.7412587 C346.881119,61.5384615 338.013986,74.3216783 338.013986,96.8391608 C338.013986,119.356643 349.818182,134.601399 367.888112,134.601399 C376.27972,134.601399 383.944056,131.804196 400,123.944056 L400,142.237762 C380.727273,151.048951 369.370629,153.846154 353.846154,153.846154 C337.062937,153.846154 325.202797,149.398601 315.524476,139.552448 C305.696701,129.554348 300.338161,116.001582 300.671329,101.986014 C300.671329,69.4825175 324.671329,47.5524476 359.692308,47.5524476 Z M282.013986,47.5524476 C286.675684,47.424161 291.191464,49.1847888 294.536093,52.4346099 C297.880723,55.6844311 299.770443,60.1477297 299.776224,64.8111888 C299.776224,74.4335664 294.293706,82.2937063 278.769231,101.874126 L278.769231,101.874126 L239.58042,152 L211.412587,152 L211.412587,88.6713287 L172.895105,152 L147.160839,152 L147.160839,70.2937063 L127.272727,68.2797203 L127.272727,58.965035 L163.636364,50.0699301 L177.622378,50.0699301 L177.622378,116.699301 L217.79021,50.0699301 L241.986014,50.0699301 L241.986014,127.300699 L267.412587,93.4265734 L267.412587,53.5664336 C271.281574,49.6927122 276.539122,47.5272473 282.013986,47.5524476 Z M61.9020979,69.6503497 C58.031754,69.8175449 54.1744184,70.2098163 50.3496503,70.8251748 L50.3496503,139.440559 L55.9440559,139.440559 L55.9440559,139.440559 C76.6713287,139.440559 87.7762238,126.517483 87.7762238,101.762238 C87.7762238,80.8111888 78.6853147,69.6503497 61.9020979,69.6503497 Z" transform="translate(0 -47)"/>
</svg>
